<svg xmlns="http://www.w3.org/2000/svg" version="1.1" xmlns:xlink="http://www.w3.org/1999/xlink" xmlns:svgjs="http://svgjs.com/svgjs" width="300" height="300"><svg version="1.1" id="SvgjsSvg1001" xmlns="http://www.w3.org/2000/svg" xmlns:xlink="http://www.w3.org/1999/xlink" x="0px" y="0px" viewBox="0 0 300 300" style="enable-background:new 0 0 300 300;" xml:space="preserve">
<style type="text/css">
	.st0{fill:#51B1E0;}
	.st1{fill:#2DAC63;}
	.st2{fill:url(#SVGID_1_);}
</style>
<g>
	<path class="st0" d="M84.5,172.4c-12.4-39,9.2-80.9,48.2-93.3c22-7,46.1-3.3,65,9.8c0.1,0.1,0.3,0.2,0.4,0.3c0,0,0,0,0,0
		c0.2,0.2,0.5,0.4,0.7,0.6c0.4,0.4,0.9,0.8,1.3,1.3c0.4,0.5,0.8,0.9,1.1,1.5c0.5,0.8,0.9,1.6,1.2,2.5c1.1,3.4,0.5,6.9-1.3,9.7
		c-0.2,0.3-0.4,0.6-0.6,0.9c-0.2,0.3-0.5,0.6-0.7,0.8c-0.5,0.5-1,1-1.6,1.4c-0.9,0.7-2,1.2-3.2,1.6c-3.4,1.1-6.8,0.5-9.6-1.2
		c0,0,0,0-0.1-0.1c-0.3-0.2-0.5-0.4-0.8-0.6c0,0-0.1-0.1-0.1-0.1c-13.1-9-29.6-11.5-44.8-6.6c-27,8.6-42,37.6-33.4,64.6
		c8.6,27,37.6,42,64.6,33.4c14.2-4.5,25.6-15,31.5-28.5c3.1,8.2,8.5,14.9,15.3,19.7c-9.2,14.4-23.2,25.3-39.8,30.6
		C138.8,233,96.9,211.4,84.5,172.4z"></path>
	<path class="st1" d="M237,197.7c-12.2,20.6-32.3,36.7-57.6,43.2C134,252.5,86.2,228.4,68.7,185C48,133.6,75.6,76.3,127.4,59.8
		c30.3-9.7,62-3.1,85.7,14.9l27.5-8.8c-5.9-4.5-9.1-12.3-6.9-20.4l3.5-12.9c-7.6-5.3-15.6-9.8-23.9-13.4l-9.2,9.8
		c-10.4,11.1-29,6.4-32.9-8.3l-3.4-12.9c-4.5-0.4-9.1-0.5-13.7-0.5c-4.6,0.1-9.2,0.4-13.7,0.8l-3.1,13c-3.5,14.8-21.9,20-32.6,9.2
		l-9.5-9.5c-8.3,3.9-16.1,8.6-23.6,14.1l3.9,12.8c4.4,14.6-8.9,28.3-23.6,24.3l-12.9-3.5C33.7,76,29.2,84,25.5,92.3l9.8,9.2
		c11.1,10.4,6.4,29-8.3,32.9l-12.9,3.4c-0.4,4.5-0.5,9.1-0.5,13.7c0.1,4.6,0.4,9.2,0.8,13.7l13,3.1c14.8,3.5,20,21.9,9.2,32.6
		l-9.5,9.5c3.9,8.3,8.6,16.1,14.1,23.6l12.8-3.9c14.6-4.4,28.3,8.9,24.3,23.6l-3.5,12.9c7.6,5.3,15.6,9.8,23.9,13.4l9.2-9.8
		c10.4-11.1,29-6.4,32.9,8.3l3.4,12.9c4.5,0.4,9.1,0.5,13.7,0.5c4.6-0.1,9.2-0.4,13.7-0.8l3.1-13c3.5-14.8,21.9-20,32.6-9.2l9.5,9.5
		c8.3-3.9,16.1-8.6,23.6-14.1l-3.9-12.8c-4.4-14.6,8.9-28.3,23.6-24.3l12.9,3.5c5.3-7.6,9.8-15.6,13.4-23.9l-9.8-9.2
		c-3-2.9-4.9-6.3-5.6-9.9c-4.3,3.7-9.4,6.6-15.1,8.4C249.7,198.1,243.2,198.5,237,197.7z"></path>
	
		<linearGradient id="SvgjsLinearGradient1000" gradientUnits="userSpaceOnUse" x1="576.2758" y1="2446.384" x2="620.1082" y2="2402.5518" gradientTransform="matrix(0.9528 -0.3037 -0.3037 -0.9528 412.0065 2647.77)">
		<stop offset="0" style="stop-color:#FBBF48"></stop>
		<stop offset="1" style="stop-color:#DB8E44"></stop>
	</linearGradient>
	<circle class="st2" cx="242.9" cy="154.7" r="31"></circle>
</g>
</svg><style>@media (prefers-color-scheme: light) { :root { filter: contrast(1) brightness(1); } }
</style></svg>